<svg xmlns="http://www.w3.org/2000/svg" xmlns:xlink="http://www.w3.org/1999/xlink" width="2000" zoomAndPan="magnify" viewBox="0 0 1500 1499.999933" height="2000" preserveAspectRatio="xMidYMid meet" version="1.0"><path fill="#000000" d="M 93.617188 1500.261719 L 93.617188 1077.828125 L 446.851562 1077.828125 L 446.851562 1500.261719 Z M 907.613281 1500.261719 L 907.613281 896.066406 L 559.480469 896.066406 L 559.480469 1500.261719 Z M 1378.613281 1500.261719 L 1378.613281 624.675781 L 1025.347656 624.675781 L 1025.347656 1500.261719 Z M 1378.613281 1500.261719 " fill-opacity="1" fill-rule="nonzero"/><path fill="#000000" d="M 81.75 949.445312 C 62.769531 942.390625 28.636719 923.4375 39.203125 879.03125 C 46.679688 847.757812 72.683594 824.351562 104.019531 817.261719 C 233.910156 787.582031 700.003906 649.96875 1276.222656 112.644531 L 1201.980469 35.859375 L 1470.765625 0.0976562 L 1435.011719 251.007812 L 1358.234375 189.5625 C 1358.234375 189.5625 865.8125 733.875 103.53125 950.164062 C 99.953125 951.199219 96.304688 951.660156 92.585938 951.535156 C 88.863281 951.414062 85.253906 950.71875 81.75 949.445312 Z M 81.75 949.445312 " fill-opacity="1" fill-rule="nonzero"/></svg>
