<svg xmlns="http://www.w3.org/2000/svg" xmlns:xlink="http://www.w3.org/1999/xlink" width="2000" zoomAndPan="magnify" viewBox="0 0 1500 1499.999933" height="2000" preserveAspectRatio="xMidYMid meet" version="1.0"><path fill="#000000" d="M 1231.5625 50.625 C 1204.9375 17.4375 1159.125 0 1093.75 0 C 1035.5625 0 987.1875 25.1875 953.75 72.875 C 892.875 159.625 893.125 306.5625 924.25 426.6875 C 973.4375 294.25 1107.8125 135.5 1231.5625 50.625 Z M 1231.5625 50.625 " fill-opacity="1" fill-rule="nonzero"/><path fill="#000000" d="M 907.6875 483.6875 C 907.9375 482.125 908.5625 480.5 908.875 478.9375 L 518.625 813.375 C 405.4375 830.0625 324.1875 1065.4375 313.6875 1142.125 L 9.1875 1446.625 C -3 1458.8125 -3 1478.625 9.1875 1490.8125 C 15.25 1496.9375 23.25 1500 31.25 1500 C 39.25 1500 47.25 1496.9375 53.375 1490.875 L 357.875 1186.375 C 434.5625 1175.875 669.9375 1094.625 686.625 981.4375 L 1002.625 612.6875 L 938.5625 570.25 C 912.125 544.6875 902.3125 513.875 907.6875 483.6875 Z M 907.6875 483.6875 " fill-opacity="1" fill-rule="nonzero"/><path fill="#000000" d="M 1444.0625 263.3125 C 1427 251.5 1408.8125 246.625 1392 245.0625 C 1415.4375 212.875 1433.0625 182.1875 1441.3125 155.9375 C 1455.4375 111.125 1442.0625 85.375 1428.3125 71.625 C 1422.875 66.25 1416.4375 62.5625 1409.6875 59.4375 C 1407.5625 58.4375 1405.375 57.5625 1403 56.75 C 1397.625 55 1391.75 54.125 1385.625 53.6875 C 1382.625 53.4375 1380 52.875 1376.6875 52.9375 C 1372.9375 53.0625 1368.8125 53.875 1364.8125 54.5625 C 1361.25 55.0625 1357.5 55.8125 1353.625 56.75 C 1231.3125 90.125 997.6875 333.3125 969.1875 494.5 C 967.4375 504.5625 970.6875 514.8125 977.875 522 L 1050 569.5 C 1105.625 586.3125 1168.3125 596.875 1229.5 596.875 C 1304.4375 596.875 1376.25 581.9375 1427.125 546.25 C 1474.8125 512.8125 1500 464.4375 1500 406.25 C 1500 337.125 1481.1875 289.0625 1444.0625 263.3125 Z M 1444.0625 263.3125 " fill-opacity="1" fill-rule="nonzero"/></svg>
